<?xml version="1.0" encoding="UTF-8" standalone="no"?>
<svg
   xmlns:dc="http://purl.org/dc/elements/1.1/"
   xmlns:cc="http://creativecommons.org/ns#"
   xmlns:rdf="http://www.w3.org/1999/02/22-rdf-syntax-ns#"
   xmlns:svg="http://www.w3.org/2000/svg"
   xmlns="http://www.w3.org/2000/svg"
   xmlns:sodipodi="http://sodipodi.sourceforge.net/DTD/sodipodi-0.dtd"
   xmlns:inkscape="http://www.inkscape.org/namespaces/inkscape"
   xml:space="preserve"
   viewBox="0 0 203.5 39.200001"
   y="0px"
   x="0px"
   id="Calque_1"
   version="1.1"
   sodipodi:docname="altco_logo.svg"
   width="203.5"
   height="39.200001"
   inkscape:version="0.92.2 2405546, 2018-03-11"><sodipodi:namedview
   pagecolor="#ffffff"
   bordercolor="#666666"
   borderopacity="1"
   objecttolerance="10"
   gridtolerance="10"
   guidetolerance="10"
   inkscape:pageopacity="0"
   inkscape:pageshadow="2"
   inkscape:window-width="816"
   inkscape:window-height="480"
   id="namedview18"
   showgrid="false"
   fit-margin-top="0"
   fit-margin-left="0"
   fit-margin-right="0"
   fit-margin-bottom="0"
   inkscape:zoom="0.78666667"
   inkscape:cx="111"
   inkscape:cy="22.8"
   inkscape:window-x="0"
   inkscape:window-y="0"
   inkscape:window-maximized="0"
   inkscape:current-layer="g26" /><metadata
   id="metadata33"><rdf:RDF><cc:Work
       rdf:about=""><dc:format>image/svg+xml</dc:format><dc:type
         rdf:resource="http://purl.org/dc/dcmitype/StillImage" /><dc:title>altcoinomy</dc:title></cc:Work></rdf:RDF></metadata><defs
   id="defs31" />
<title
   id="title2">altcoinomy</title>
<desc
   id="desc4">Created with Sketch.</desc>
<g
   id="g26"
   transform="translate(-39,-133.6)">
	<path
   d="m 54.6,154.5 -4.3,-10.9 -4.1,10.9 z m 13.1,9.9 v 0 l -13.6,0.1 v -0.1 c 2.4,-0.9 3.4,-2.7 2.2,-5.6 l -1.1,-2.7 h -9.7 l -1,2.8 c -1.1,2.9 -0.3,4.7 2.1,5.6 v 0.1 H 39 v -0.1 c 1.4,-1.1 2.7,-3.1 3.8,-6 l 9.9,-24.9 h 0.2 l 10.3,24.2 c 1.6,3.9 3,5.8 4.5,6.6 z"
   id="Fill-1"
   inkscape:connector-curvature="0" />
	<path
   d="m 68.1,164.4 c 2.2,-1.2 2.3,-2.9 2.3,-5.2 v -19.7 c 0,-2.3 -0.1,-4 -2.3,-5.2 v -0.1 h 8.3 v 25 c 0,2.3 0.1,4 2.3,5.2 v 0.1 z"
   id="Fill-4"
   inkscape:connector-curvature="0" />
	<path
   d="M 82.2,156.6 V 144.4 H 79.8 V 143 c 3,-0.4 6.3,-3.4 8.4,-7.4 h 0.1 v 7.3 H 92 v 1.5 h -3.7 v 12.9 c 0,3.4 0.5,4.9 5,7.1 v 0.1 c -11.2,0.6 -11.1,-2.7 -11.1,-7.9"
   id="Fill-6"
   inkscape:connector-curvature="0" />
	<path
   d="m 92.9,153.8 c 0,-7.5 5.4,-11.3 10,-11.3 3,0 5.8,1.7 7.4,5.1 l -6.8,3.4 h -0.1 c 0.9,-2.9 0.3,-7 -1.5,-7 -1.4,0 -2.9,2.2 -2.9,7.2 0,6.5 3.2,8.8 5.9,8.8 2,0 4,-1 5.7,-2.7 h 0.1 c -1,3.2 -4.1,7.5 -8.4,7.5 -4.4,0 -9.4,-3.5 -9.4,-11"
   id="Fill-8"
   inkscape:connector-curvature="0" />
	<path
   d="m 126.7,156.2 c 0,-7 -2.6,-12.5 -5.2,-12.5 -1.4,0 -2.9,2.5 -2.9,7.6 0,7 2.6,12.5 5.2,12.5 1.3,0 2.9,-2.5 2.9,-7.6 m -14.5,-2.4 c 0,-7.5 5.5,-11.3 10.3,-11.3 4.4,0 10.5,3.5 10.5,11.2 0,7.5 -5.5,11.3 -10.4,11.3 -4.3,0 -10.4,-3.5 -10.4,-11.2"
   id="Fill-10"
   inkscape:connector-curvature="0" />
	<path
   d="m 136.1,137.2 c 0,-1.8 1.5,-3.3 3.4,-3.3 1.9,0 3.4,1.5 3.4,3.3 0,1.9 -1.5,3.3 -3.4,3.3 -1.9,0 -3.4,-1.4 -3.4,-3.3 z m -1.7,27.2 c 2.2,-1.2 2.3,-2.9 2.3,-5.2 v -11 c 0,-2.3 -0.1,-4 -2.3,-5.2 v -0.1 h 8.3 v 16.4 c 0,2.3 0.1,4 2.3,5.2 v 0.1 z"
   id="Fill-12"
   inkscape:connector-curvature="0" />
	<path
   d="m 167.9,164.4 v 0 l -10.2,0.1 v -0.1 c 1.7,-1 1.9,-2.9 1.9,-5.2 V 148 c 0,-1.4 -0.5,-2.7 -1.9,-2.7 -0.8,0 -1.8,0.3 -3.1,1.3 v 12.7 c 0,2.3 0.1,4.2 1.9,5.2 v 0.1 h -10.2 v -0.1 c 2.2,-1.2 2.3,-2.9 2.3,-5.2 v -11.1 c 0,-2.3 -0.1,-4 -2.3,-5.2 v -0.1 h 8.3 v 2.3 c 1.7,-1.1 4.5,-2.5 7.2,-2.5 2.9,0 3.8,1.7 3.8,3.6 v 13 c 0,2.2 0.1,4 2.3,5.1"
   id="Fill-14"
   inkscape:connector-curvature="0" />
	<path
   d="m 183.6,156.2 c 0,-7 -2.6,-12.5 -5.2,-12.5 -1.4,0 -2.9,2.5 -2.9,7.6 0,7 2.6,12.5 5.2,12.5 1.4,0 2.9,-2.5 2.9,-7.6 m -14.5,-2.4 c 0,-7.5 5.5,-11.3 10.3,-11.3 4.4,0 10.4,3.5 10.4,11.2 0,7.5 -5.5,11.3 -10.4,11.3 -4.2,0 -10.3,-3.5 -10.3,-11.2"
   id="Fill-16"
   inkscape:connector-curvature="0" />
	<path
   d="m 224,164.4 v 0 l -10.2,0.1 v -0.1 c 1.7,-1 1.9,-2.9 1.9,-5.2 V 148 c 0,-1.4 -0.5,-2.7 -1.9,-2.7 -0.8,0 -1.8,0.3 -3.1,1.2 v 12.8 c 0,2.3 0.1,4.1 1.9,5.2 v 0.1 h -9.8 v -0.1 c 1.7,-1 1.9,-2.9 1.9,-5.2 V 148 c 0,-1.4 -0.5,-2.7 -1.9,-2.7 -0.8,0 -1.8,0.3 -3.1,1.2 v 12.8 c 0,2.3 0.1,4.2 1.9,5.2 v 0.1 h -10.2 v -0.1 c 2.2,-1.2 2.3,-2.9 2.3,-5.2 v -11.1 c 0,-2.3 -0.1,-4 -2.3,-5.2 v -0.1 h 8.3 v 2.3 c 1.7,-1.1 4.5,-2.5 7.2,-2.5 2.3,0 3.4,1.1 3.7,2.6 1.7,-1 4.6,-2.6 7.3,-2.6 2.9,0 3.8,1.7 3.8,3.6 v 13 c 0,2.2 0.1,4 2.3,5.1"
   id="Fill-18"
   inkscape:connector-curvature="0" />
	<path
   d="m 242.5,142.9 v 0 c -0.9,0.8 -1.5,2.4 -2.5,5 l -6.1,16 c -2.3,6.1 -4.3,8.9 -8.3,8.9 -0.4,0 -0.9,0 -1.1,-0.1 l -0.4,-7.4 h 0.1 c 0.9,1.1 2.3,1.9 4,1.9 2,0 3.4,-0.9 4.4,-3.6 l -6.3,-15.4 c -0.9,-2.2 -1.9,-4.5 -2.8,-5.2 v -0.1 h 10.2 v 0.1 c -2.5,0.9 -2.4,2.3 -1.5,4.5 l 3.3,8.6 3.1,-8.4 c 0.9,-2.4 0.9,-3.9 -1.4,-4.7 v -0.1 c 0,0 5.3,0 5.3,0 z"
   id="Fill-20"
   inkscape:connector-curvature="0" />
	
</g>
</svg>