<?xml version="1.0" encoding="UTF-8" standalone="no"?>
<!-- Created with Inkscape (http://www.inkscape.org/) -->

<svg
   xmlns:dc="http://purl.org/dc/elements/1.1/"
   xmlns:cc="http://creativecommons.org/ns#"
   xmlns:rdf="http://www.w3.org/1999/02/22-rdf-syntax-ns#"
   xmlns:svg="http://www.w3.org/2000/svg"
   xmlns="http://www.w3.org/2000/svg"
   xmlns:sodipodi="http://sodipodi.sourceforge.net/DTD/sodipodi-0.dtd"
   xmlns:inkscape="http://www.inkscape.org/namespaces/inkscape"
   version="1.1"
   id="svg1728"
   width="32.901775"
   height="48.42268"
   viewBox="0 0 32.901776 48.42268"
   sodipodi:docname="partners_logo_bancor.svg"
   inkscape:version="0.92.2 2405546, 2018-03-11">
  <metadata
     id="metadata1734">
    <rdf:RDF>
      <cc:Work
         rdf:about="">
        <dc:format>image/svg+xml</dc:format>
        <dc:type
           rdf:resource="http://purl.org/dc/dcmitype/StillImage" />
        <dc:title></dc:title>
      </cc:Work>
    </rdf:RDF>
  </metadata>
  <defs
     id="defs1732" />
  <sodipodi:namedview
     pagecolor="#ffffff"
     bordercolor="#666666"
     borderopacity="1"
     objecttolerance="10"
     gridtolerance="10"
     guidetolerance="10"
     inkscape:pageopacity="0"
     inkscape:pageshadow="2"
     inkscape:window-width="1916"
     inkscape:window-height="1045"
     id="namedview1730"
     showgrid="false"
     fit-margin-top="0"
     fit-margin-left="0"
     fit-margin-right="-153"
     fit-margin-bottom="0"
     inkscape:zoom="4"
     inkscape:cx="37.837894"
     inkscape:cy="-15.631018"
     inkscape:window-x="1"
     inkscape:window-y="1"
     inkscape:window-maximized="1"
     inkscape:current-layer="svg1728" />
  <path
     style="fill:#000000;stroke-width:0.99999994"
     d="M 8.0233922,43.966768 C 5.4554483,42.405493 3.2606506,41.029245 3.1460664,40.90846 3.021885,40.777549 2.9613507,38.25296 2.9962056,34.658484 l 0.058474,-6.030353 3.9426975,2.40292 c 2.1684841,1.321606 4.4089359,2.691439 4.9787869,3.044069 l 1.036085,0.641149 0.0044,6.061216 c 0.0024,3.333673 -0.06958,6.053737 -0.159933,6.044599 -0.09035,-0.0086 -2.265325,-1.294029 -4.8332725,-2.855316 z m 8.9914128,-3.256268 0.05836,-6.148504 3.614139,-2.191721 c 1.987776,-1.205448 4.430836,-2.677381 5.429021,-3.270963 0.998187,-0.593583 2.279564,-1.362558 2.847505,-1.708832 0.567941,-0.346275 1.1969,-0.634985 1.1969,-0.634985 0.09035,-0.0029 0.160938,2.722153 0.156858,6.055821 l -0.0075,6.061216 -1.580609,0.951641 c -6.16986,3.7147 -10.855128,6.52242 -11.27667,6.757722 l -0.496433,0.277107 0.05836,-6.148502 z M 7.9830517,27.553671 C 5.3929185,25.968893 3.199794,24.672189 3.1094402,24.672111 3.0190886,24.672034 2.9451609,21.874769 2.9451609,18.455966 v -6.216001 l 5.0350902,3.041079 5.0350889,3.041082 0.0028,6.061215 c 0.0015,3.333668 -0.07113,6.059084 -0.161477,6.056482 -0.09035,-0.0026 -2.28348,-1.301372 -4.8736131,-2.886152 z m 9.0317723,-3.244194 0.05833,-6.135081 3.942697,-2.412061 c 2.168484,-1.326633 4.410894,-2.671906 4.983132,-2.989495 l 1.040435,-0.577436 v 6.10309 6.103091 l -0.930916,0.56137 c -6.443816,3.885808 -8.410866,5.093337 -8.586318,5.270953 -0.114448,0.115855 -0.288552,0.210649 -0.386896,0.210649 -0.09834,0 -0.152558,-2.760786 -0.12047,-6.13508 z M 12.363827,12.880579 C 10.978407,12.008063 8.8838493,10.708416 7.7092534,9.992475 6.5346587,9.276535 5.573626,8.619809 5.573626,8.533083 c 0,-0.08673 0.5174791,-0.480912 1.1499533,-0.875969 C 11.395627,4.7388529 12.854881,3.8424299 14.012943,3.1792426 l 1.320558,-0.7562447 3.169738,1.9284585 c 1.743355,1.0606524 3.98154,2.4039657 4.973749,2.9851397 0.992209,0.5811749 1.804563,1.1086339 1.805228,1.1721329 6.57e-4,0.0635 -0.466154,0.386354 -1.03738,0.717458 -0.962004,0.557613 -3.337046,1.981975 -7.219716,4.329817 -0.869723,0.525917 -1.707546,0.946034 -1.861832,0.933593 -0.154284,-0.01244 -1.41404,-0.736501 -2.799461,-1.609018 z"
     id="path6020"
     inkscape:connector-curvature="0"
     sodipodi:nodetypes="ccscsccscccccssccccsccccccscccccccccsscccscsccssssscsscsscs" />
</svg>
