<?xml version="1.0" encoding="UTF-8" standalone="no"?>
<svg
   xmlns:dc="http://purl.org/dc/elements/1.1/"
   xmlns:cc="http://creativecommons.org/ns#"
   xmlns:rdf="http://www.w3.org/1999/02/22-rdf-syntax-ns#"
   xmlns:svg="http://www.w3.org/2000/svg"
   xmlns="http://www.w3.org/2000/svg"
   xmlns:sodipodi="http://sodipodi.sourceforge.net/DTD/sodipodi-0.dtd"
   xmlns:inkscape="http://www.inkscape.org/namespaces/inkscape"
   id="Calque_1"
   data-name="Calque 1"
   viewBox="0 0 113.59004 165.44125"
   version="1.1"
   sodipodi:docname="partners_logo_geneve.svg"
   width="113.59"
   height="165.44124"
   inkscape:version="0.92.2 2405546, 2018-03-11">
  <metadata
     id="metadata225">
    <rdf:RDF>
      <cc:Work
         rdf:about="">
        <dc:format>image/svg+xml</dc:format>
        <dc:type
           rdf:resource="http://purl.org/dc/dcmitype/StillImage" />
        <dc:title>footer-logo</dc:title>
      </cc:Work>
    </rdf:RDF>
  </metadata>
  <sodipodi:namedview
     pagecolor="#ffffff"
     bordercolor="#666666"
     borderopacity="1"
     objecttolerance="10"
     gridtolerance="10"
     guidetolerance="10"
     inkscape:pageopacity="0"
     inkscape:pageshadow="2"
     inkscape:window-width="1312"
     inkscape:window-height="607"
     id="namedview223"
     showgrid="false"
     fit-margin-top="0"
     fit-margin-left="0"
     fit-margin-right="-100"
     fit-margin-bottom="0"
     inkscape:zoom="1.8101934"
     inkscape:cx="0.28238977"
     inkscape:cy="74.932305"
     inkscape:window-x="0"
     inkscape:window-y="0"
     inkscape:window-maximized="0"
     inkscape:current-layer="Calque_1" />
  <defs
     id="defs4">
    <style
       id="style2">.cls-1,.cls-6{fill:#fd0;}.cls-2{fill:#e63312;}.cls-3,.cls-4{fill:none;}.cls-3,.cls-6{stroke:#000;}.cls-3{stroke-width:5.63px;}.cls-4{stroke:#e30613;stroke-width:0.25px;}.cls-5{fill:#fff;}.cls-6{stroke-width:0.22px;}</style>
  </defs>
  <title
     id="title6">footer-logo</title>
  <path
     d="m 72.274273,29.485807 a 4.2620817,4.2620817 0 0 1 0.833886,-0.741232 3.706158,3.706158 0 0 1 1.538056,-0.518862 4.9106593,4.9106593 0 0 0 1.936467,-0.667108 4.410328,4.410328 0 0 0 1.260094,-1.454667 4.1972239,4.1972239 0 0 1 1.714098,-1.760425 5.3924598,5.3924598 0 0 1 3.428196,-0.435474 l 0.333554,0.08339 -0.138981,-0.34282 a 3.7710157,3.7710157 0 0 0 -3.780281,-2.066183 5.9483835,5.9483835 0 0 0 -2.399737,1.037724 6.0780991,6.0780991 0 0 1 -1.917937,0.92654 4.4566549,4.4566549 0 0 1 -1.677036,-0.129716 8.283263,8.283263 0 0 0 -2.909334,-0.176042 l 6.92125,-10.970228 -11.702194,7.393785 a 3.9748544,3.9748544 0 0 1 0,-1.121112 3.706158,3.706158 0 0 1 0.722701,-1.454667 4.9291901,4.9291901 0 0 0 0.926539,-1.853079 4.3547356,4.3547356 0 0 0 -0.148246,-1.917937 4.1786931,4.1786931 0 0 1 0,-2.45533 5.4295214,5.4295214 0 0 1 2.11251,-2.7796176 l 0.315023,-0.185308 -0.342819,-0.138981 a 3.7710157,3.7710157 0 0 0 -4.132366,1.213767 5.9483835,5.9483835 0 0 0 -0.92654,2.4367976 5.9669143,5.9669143 0 0 1 -0.722701,1.99206 4.4937165,4.4937165 0 0 1 -1.278624,1.093317 8.1998745,8.1998745 0 0 0 -2.186633,1.936467 L 57.134618,3.8669914 54.058507,17.394468 A 4.058243,4.058243 0 0 1 53.298745,16.551316 3.706158,3.706158 0 0 1 52.742821,14.985464 4.9106593,4.9106593 0 0 0 52.075713,13.048996 4.3825318,4.3825318 0 0 0 50.621046,11.798168 4.1972239,4.1972239 0 0 1 48.860621,10.08407 5.4109906,5.4109906 0 0 1 48.462209,6.6466084 l 0.09265,-0.36135 -0.342819,0.138981 a 3.7710157,3.7710157 0 0 0 -2.066183,3.7802806 5.9298527,5.9298527 0 0 0 1.037724,2.446064 6.0225067,6.0225067 0 0 1 0.92654,1.917937 4.4288588,4.4288588 0 0 1 -0.129716,1.677037 8.283263,8.283263 0 0 0 -0.176043,2.918599 L 36.8434,12.261438 l 7.412316,11.72999 a 4.1601623,4.1601623 0 0 1 -1.130378,-0.06486 3.706158,3.706158 0 0 1 -1.500994,-0.713435 4.9940479,4.9940479 0 0 0 -1.853079,-0.92654 4.3454702,4.3454702 0 0 0 -1.917937,0.148246 4.1879585,4.1879585 0 0 1 -2.455329,0 5.4109906,5.4109906 0 0 1 -2.779619,-2.121775 l -0.185308,-0.315023 -0.07412,0.398412 a 3.7710157,3.7710157 0 0 0 1.213767,4.141631 5.9113219,5.9113219 0 0 0 2.427533,0.92654 5.9761797,5.9761797 0 0 1 1.99206,0.7227 4.410328,4.410328 0 0 1 1.093317,1.278625 8.3388554,8.3388554 0 0 0 1.954998,2.205164 l -12.600937,2.918599 14.379893,3.27995 a 2.7796185,2.7796185 0 0 0 0,0.268696 h 28.537416 c 0,0 0,-0.194573 0.05559,-0.277961 l 14.407689,-3.270685 z"
     id="path8"
     inkscape:connector-curvature="0"
     style="stroke-width:1" />
  <path
     d="M 11.048544,36.110564 V 93.935892 A 46.011951,46.011951 0 0 0 89.600562,126.47596 45.715458,45.715458 0 0 0 103.08171,93.935892 V 36.110564 Z"
     id="path10"
     inkscape:connector-curvature="0"
     style="stroke-width:1" />
  <path
     class="cls-1"
     d="M 12.234515,93.935892 V 37.296535 H 56.921514 V 138.77114 A 44.825981,44.825981 0 0 1 12.234515,93.935892 Z"
     id="path12"
     inkscape:connector-curvature="0"
     style="fill:#ffdd00;stroke-width:1" />
  <path
     class="cls-2"
     d="M 101.89574,93.935892 A 44.825981,44.825981 0 0 1 57.29213,138.77114 V 37.296535 h 44.60361 z"
     id="path14"
     inkscape:connector-curvature="0"
     style="fill:#e63312;stroke-width:1" />
  <polyline
     class="cls-3"
     points="82.87 112.72 82.87 112.72 82.87 112.72 82.87 112.72 82.87 112.72 82.87 112.72 82.87 112.72"
     id="polyline16"
     style="fill:none;stroke:#000000;stroke-width:6.07637358px"
     transform="matrix(0.92653949,0,0,0.92653949,11.048544,3.8669904)" />
  <path
     d="M 79.214054,93.444832 V 47.840554 a 2.9649264,2.9649264 0 0 0 -5.920587,0 v 45.595008 h 0.759762 V 47.840554 a 2.2236948,2.2236948 0 1 1 4.438124,0 v 45.604278 h 0.741232 z"
     id="path18"
     inkscape:connector-curvature="0"
     style="stroke-width:1" />
  <path
     d="m 38.29807,56.939172 a 3.307746,3.307746 0 0 0 -1.964263,-0.611516 3.8173427,3.8173427 0 0 0 -1.528791,0.379881 5.1978865,5.1978865 0 0 1 -2.121775,0.491066 3.9007313,3.9007313 0 0 1 -2.779618,-1.158174 l -0.22237,-0.287228 -0.101919,0.370616 a 2.2422256,2.2422256 0 0 0 0.379881,1.982795 3.4745231,3.4745231 0 0 0 2.557249,1.093316 5.6055639,5.6055639 0 0 0 2.872272,-0.926539 l 0.361351,-0.203839 c 1.28789,-0.70417 1.853079,-0.518862 2.084714,-0.426208 v 0 l 0.138981,0.04633 0.07412,-0.12045 0.222369,-0.352085 0.08339,-0.138981 z"
     id="path20"
     inkscape:connector-curvature="0"
     style="stroke-width:1" />
  <path
     d="m 40.188211,43.912027 a 1.0377242,1.0377242 0 1 0 -1.037724,-1.037724 1.0191934,1.0191934 0 0 0 0.305758,0.731966 1.0284588,1.0284588 0 0 0 0.731966,0.305758 z"
     id="path22"
     inkscape:connector-curvature="0"
     style="stroke-width:1" />
  <line
     class="cls-4"
     x1="51.121376"
     y1="112.65199"
     x2="46.50721"
     y2="117.21983"
     id="line24"
     style="fill:none;stroke:#e30613;stroke-width:0.25px" />
  <path
     d="m 92.806389,105.06363 a 3.4003999,3.4003999 0 0 0 -2.251491,-0.9914 v -1.48246 a 1.853079,1.853079 0 0 0 -1.853079,-1.85308 H 88.25708 a 1.853079,1.853079 0 0 0 -1.853079,1.85308 v 1.01919 a 10.191934,10.191934 0 0 1 -6.013242,-6.013238 h 0.759763 a 1.853079,1.853079 0 0 0 1.853079,-1.85308 v -0.44474 a 1.853079,1.853079 0 0 0 -1.853079,-1.85307 h -9.802788 a 1.853079,1.853079 0 0 0 -1.853079,1.85307 v 0.44474 a 1.853079,1.853079 0 0 0 1.853079,1.85308 h 1.019193 a 10.247527,10.247527 0 0 1 -5.957649,5.994708 v -0.99139 a 1.853079,1.853079 0 0 0 -1.853079,-1.85308 h -0.444738 a 1.853079,1.853079 0 0 0 -1.853079,1.85308 v 1.48246 a 3.4281961,3.4281961 0 0 0 0,6.84713 v 1.48246 a 1.853079,1.853079 0 0 0 1.853079,1.85308 h 0.444738 a 1.853079,1.853079 0 0 0 1.853079,-1.85308 v -0.7505 a 10.256792,10.256792 0 0 1 5.985446,6.00398 h -0.759763 a 1.853079,1.853079 0 0 0 -1.853079,1.85308 v 0.44474 a 1.853079,1.853079 0 0 0 1.853079,1.85308 h 1.491729 a 3.4281961,3.4281961 0 0 0 6.847127,0 h 1.491728 a 1.853079,1.853079 0 0 0 1.853079,-1.85308 v -0.46327 a 1.853079,1.853079 0 0 0 -1.853079,-1.85308 h -1.019193 a 10.266058,10.266058 0 0 1 5.985445,-6.00398 v 0.7505 a 1.853079,1.853079 0 0 0 1.853079,1.85308 h 0.444739 a 1.853079,1.853079 0 0 0 1.853079,-1.85308 v -1.48246 a 3.4281961,3.4281961 0 0 0 2.223695,-5.84647 z"
     id="path26"
     inkscape:connector-curvature="0"
     style="stroke-width:1" />
  <path
     class="cls-1"
     d="m 76.536355,124.31712 a 2.6962299,2.6962299 0 0 1 -2.686964,-2.52019 h 5.364663 a 2.6962299,2.6962299 0 0 1 -2.677699,2.52019 z"
     id="path28"
     inkscape:connector-curvature="0"
     style="fill:#ffdd00;stroke-width:1" />
  <path
     class="cls-1"
     d="m 62.258382,110.17813 a 2.6869645,2.6869645 0 0 1 0,-5.36466 z"
     id="path30"
     inkscape:connector-curvature="0"
     style="fill:#ffdd00;stroke-width:1" />
  <path
     class="cls-1"
     d="m 66.400013,104.36873 a 10.942431,10.942431 0 0 0 6.726677,-6.782268 h 2.612841 a 13.49968,13.49968 0 0 1 -9.339518,9.404368 z"
     id="path32"
     inkscape:connector-curvature="0"
     style="fill:#ffdd00;stroke-width:1" />
  <path
     class="cls-2"
     d="m 76.388109,98.160912 a 14.222381,14.222381 0 0 0 9.478499,9.478498 14.250177,14.250177 0 0 0 -9.459968,9.4785 14.240912,14.240912 0 0 0 -9.487765,-9.4785 14.222381,14.222381 0 0 0 9.469234,-9.478498 z"
     id="path34"
     inkscape:connector-curvature="0"
     style="fill:#e63312;stroke-width:1" />
  <path
     class="cls-1"
     d="m 66.400013,110.86377 v -2.62211 a 13.444088,13.444088 0 0 1 9.385845,9.41364 H 73.12669 a 10.988758,10.988758 0 0 0 -6.726677,-6.79153 z"
     id="path36"
     inkscape:connector-curvature="0"
     style="fill:#ffdd00;stroke-width:1" />
  <path
     class="cls-1"
     d="m 86.413266,110.86377 a 10.998024,10.998024 0 0 0 -6.763738,6.78227 h -2.631372 a 13.444088,13.444088 0 0 1 9.385845,-9.41364 v 2.63137 0 z"
     id="path38"
     inkscape:connector-curvature="0"
     style="fill:#ffdd00;stroke-width:1" />
  <path
     class="cls-1"
     d="m 86.413266,107.00936 a 13.462619,13.462619 0 0 1 -9.422907,-9.422898 h 2.622107 a 10.951697,10.951697 0 0 0 6.8008,6.800798 z"
     id="path40"
     inkscape:connector-curvature="0"
     style="fill:#ffdd00;stroke-width:1" />
  <path
     class="cls-5"
     d="m 18.785149,153.66989 a 3.2799498,3.2799498 0 1 1 3.279949,3.27995 3.2799498,3.2799498 0 0 1 -3.279949,-3.27995 z m 3.279949,2.64064 a 2.6406375,2.6406375 0 1 0 -2.677699,-2.64064 2.6406375,2.6406375 0 0 0 2.677699,2.64064 z"
     id="path42"
     inkscape:connector-curvature="0"
     style="fill:#000000;fill-opacity:1;stroke-width:1;stroke:#000000;stroke-opacity:1" />
  <path
     class="cls-5"
     d="m 38.29807,150.68644 v 0.71343 a 0.74123159,0.74123159 0 0 1 0.176043,-0.10192 h 1.556586 v 5.3832 a 0.50033132,0.50033132 0 0 1 -0.101919,0.1853 h 0.815355 a 0.55592369,0.55592369 0 0 1 -0.10192,-0.1853 v -5.3832 h 1.593648 a 0.76902778,0.76902778 0 0 1 0.176043,0.10192 v -0.71343 z"
     id="path44"
     inkscape:connector-curvature="0"
     style="fill:#000000;fill-opacity:1;stroke-width:1;stroke:#000000;stroke-opacity:1" />
  <path
     class="cls-5"
     d="m 29.468149,150.68644 v 0.71343 a 0.74123159,0.74123159 0 0 1 0.176042,-0.10192 h 1.556587 v 5.3832 a 0.50033132,0.50033132 0 0 1 -0.10192,0.1853 h 0.815355 a 0.55592369,0.55592369 0 0 1 -0.101919,-0.1853 v -5.3832 h 1.593648 a 0.75976238,0.75976238 0 0 1 0.176042,0.10192 v -0.71343 z"
     id="path46"
     inkscape:connector-curvature="0"
     style="fill:#000000;fill-opacity:1;stroke-width:1;stroke:#000000;stroke-opacity:1" />
  <path
     class="cls-5"
     d="m 44.524416,151.35354 h 2.659168 a 0.52812751,0.52812751 0 0 1 0.194573,0.11119 v -0.71344 h -3.706158 a 0.42620817,0.42620817 0 0 1 0.10192,0.17605 v 5.75381 a 0.58371988,0.58371988 0 0 1 -0.10192,0.19457 h 3.706158 v -0.7227 a 0.5466583,0.5466583 0 0 1 -0.194573,0.11118 H 44.49662 a 0.49106593,0.49106593 0 0 1 -0.09265,-0.0741 v -2.08471 h 2.029121 a 0.5466583,0.5466583 0 0 1 0.194573,0.11118 v -0.81535 a 0.65784304,0.65784304 0 0 1 -0.194573,0.10192 H 44.40397 v -2.14958 h 0.13898 z"
     id="path48"
     inkscape:connector-curvature="0"
     style="fill:#000000;fill-opacity:1;stroke-width:1;stroke:#000000;stroke-opacity:1" />
  <path
     class="cls-5"
     d="m 55.670686,151.35354 h 2.677699 a 0.5373929,0.5373929 0 0 1 0.194573,0.11119 v -0.71344 H 54.8368 a 0.42620817,0.42620817 0 0 1 0.10192,0.17605 v 5.75381 a 0.57445448,0.57445448 0 0 1 -0.111185,0.19457 h 3.706158 v -0.7227 a 0.5373929,0.5373929 0 0 1 -0.194574,0.11118 H 55.66142 a 0.47253514,0.47253514 0 0 1 -0.138981,-0.0741 v -2.08471 h 2.038387 a 0.5466583,0.5466583 0 0 1 0.194574,0.11118 v -0.81535 a 0.65784304,0.65784304 0 0 1 -0.194574,0.10192 h -2.038387 v -2.14958 h 0.138981 z"
     id="path50"
     inkscape:connector-curvature="0"
     style="fill:#000000;fill-opacity:1;stroke-width:1;stroke:#000000;stroke-opacity:1" />
  <path
     class="cls-5"
     d="m 53.270948,150.74203 h -0.713435 a 0.5466583,0.5466583 0 0 1 0.101919,0.19457 v 4.35474 l -3.706158,-4.71609 v 6.1059 a 0.55592369,0.55592369 0 0 1 -0.101919,0.19457 h 0.815355 a 0.55592369,0.55592369 0 0 1 -0.101919,-0.19457 v -4.38254 l 3.706157,4.71609 v -6.0781 a 0.5466583,0.5466583 0 0 1 0.111185,-0.19457 z"
     id="path52"
     inkscape:connector-curvature="0"
     style="fill:#000000;fill-opacity:1;stroke-width:1;stroke:#000000;stroke-opacity:1" />
  <path
     class="cls-5"
     d="m 16.051857,150.60305 a 4.5029819,4.5029819 0 0 0 -1.139643,0.14824 0.81535475,0.81535475 0 0 1 -0.240901,0 0.79682396,0.79682396 0 0 1 -0.166777,0 l -0.194573,-0.0834 v 6.01325 a 0.5466583,0.5466583 0 0 1 -0.101919,0.19457 h 0.82462 a 0.55592369,0.55592369 0 0 1 -0.101919,-0.19457 v -2.27003 a 2.1866332,2.1866332 0 0 0 1.121112,0.28723 2.0476523,2.0476523 0 1 0 0,-4.0953 z m 0,3.48379 a 1.5658517,1.5658517 0 0 1 -1.121112,-0.42621 v -2.24223 a 2.8444762,2.8444762 0 0 1 1.121112,-0.23163 1.450035,1.450035 0 1 1 0,2.90007 z"
     id="path54"
     inkscape:connector-curvature="0"
     style="fill:#000000;fill-opacity:1;stroke-width:1;stroke:#000000;stroke-opacity:1" />
  <path
     class="cls-5"
     d="m 28.652794,151.55738 v -0.92654 a 0.40767738,0.40767738 0 0 1 -0.203838,0.0834 c -0.09265,0 -0.56519,-0.11118 -0.852417,-0.11118 a 1.3990746,1.3990746 0 0 0 -1.445401,1.38054 1.6214441,1.6214441 0 0 0 1.111847,1.48246 1.853079,1.853079 0 0 1 1.389809,1.54733 1.3249515,1.3249515 0 0 1 -1.399074,1.34348 1.4454016,1.4454016 0 0 1 -1.139644,-0.46327 v 1.08405 a 0.57445448,0.57445448 0 0 1 0.250166,-0.0834 c 0.12045,0 0.546658,0.12045 0.852416,0.12045 a 1.9827945,1.9827945 0 0 0 2.131041,-1.99206 2.0661831,2.0661831 0 0 0 -1.324952,-1.94573 c -0.787558,-0.43548 -1.213766,-0.5374 -1.213766,-1.10258 a 0.82462015,0.82462015 0 0 1 0.926539,-0.78756 1.0006626,1.0006626 0 0 1 0.917274,0.37061 z"
     id="path56"
     inkscape:connector-curvature="0"
     style="fill:#000000;fill-opacity:1;stroke-width:1;stroke:#000000;stroke-opacity:1" />
  <path
     class="cls-5"
     d="m 63.425821,153.44752 a 1.0655204,1.0655204 0 0 0 0.481801,-0.92654 1.853079,1.853079 0 0 0 -2.056918,-1.94573 4.5122473,4.5122473 0 0 0 -1.139643,0.14825 0.80608936,0.80608936 0 0 1 -0.231635,0 0.79682396,0.79682396 0 0 1 -0.166777,0 l -0.157512,-0.0556 v 6.01325 a 0.55592369,0.55592369 0 0 1 -0.101919,0.19457 h 2.501656 a 1.853079,1.853079 0 0 0 1.853079,-1.85308 1.5565863,1.5565863 0 0 0 -0.982132,-1.57512 z m -1.18597,2.90934 h -1.51026 v -4.94772 a 2.8537416,2.8537416 0 0 1 1.121113,-0.18531 1.2600937,1.2600937 0 0 1 1.436136,1.32495 0.92653949,0.92653949 0 0 1 -0.926539,0.75976 h -0.741232 v 0.56519 h 0.92654 a 0.98213186,0.98213186 0 0 1 1.121113,1.15818 1.40834,1.40834 0 0 1 -1.426871,1.32495 z"
     id="path58"
     inkscape:connector-curvature="0"
     style="fill:#000000;fill-opacity:1;stroke-width:1;stroke:#000000;stroke-opacity:1" />
  <path
     class="cls-5"
     d="m 69.930129,156.52363 a 2.9927226,2.9927226 0 0 0 -1.436137,-2.42753 1.454667,1.454667 0 0 0 0.92654,-1.43614 1.9086713,1.9086713 0 0 0 -2.047652,-2.04765 4.5215127,4.5215127 0 0 0 -1.139644,0.14825 0.79682396,0.79682396 0 0 1 -0.231635,0 0.83388554,0.83388554 0 0 1 -0.166777,0 l -0.12045,-0.0927 v 6.01325 a 0.55592369,0.55592369 0 0 1 -0.10192,0.19457 h 0.815355 a 0.55592369,0.55592369 0 0 1 -0.101919,-0.19457 v -5.27201 a 2.8537416,2.8537416 0 0 1 1.121113,-0.18531 1.3342169,1.3342169 0 0 1 1.42687,1.42687 1.2045013,1.2045013 0 0 1 -1.42687,1.07479 h -0.277962 v 0.55592 c 1.714098,0 2.140306,1.73263 2.140306,2.39047 v 0.19457 h 0.833886 a 1.7511596,1.7511596 0 0 1 -0.213104,-0.34282 z"
     id="path60"
     inkscape:connector-curvature="0"
     style="fill:#000000;fill-opacity:1;stroke-width:1;stroke:#000000;stroke-opacity:1" />
  <path
     class="cls-5"
     d="m 76.119412,156.67188 -2.640637,-6.12443 -2.640638,6.12443 a 1.0469896,1.0469896 0 0 1 -0.138981,0.19457 h 0.843151 a 0.26869645,0.26869645 0 0 1 -0.06486,-0.19457 l 0.611517,-1.4176 h 2.779618 l 0.592985,1.4176 a 0.26869645,0.26869645 0 0 1 -0.06486,0.19457 h 0.84315 a 1.2693591,1.2693591 0 0 1 -0.12045,-0.19457 z m -3.789546,-1.96426 1.148909,-2.65917 1.148909,2.65917 z"
     id="path62"
     inkscape:connector-curvature="0"
     style="fill:#000000;fill-opacity:1;stroke-width:1;stroke:#000000;stroke-opacity:1" />
  <path
     class="cls-5"
     d="m 79.408627,151.55738 v -0.92654 a 0.40767738,0.40767738 0 0 1 -0.203838,0.0834 c -0.09265,0 -0.565189,-0.11118 -0.852417,-0.11118 a 1.3990746,1.3990746 0 0 0 -1.445401,1.38054 1.6214441,1.6214441 0 0 0 1.111847,1.48246 1.853079,1.853079 0 0 1 1.426871,1.55659 1.3249515,1.3249515 0 0 1 -1.399075,1.34348 1.454667,1.454667 0 0 1 -1.139643,-0.46327 v 1.08405 a 0.57445448,0.57445448 0 0 1 0.250166,-0.0834 c 0.12045,0 0.546658,0.12045 0.852416,0.12045 a 1.9827945,1.9827945 0 0 0 2.131041,-1.99206 2.0661831,2.0661831 0 0 0 -1.324952,-1.94574 c -0.787558,-0.43547 -1.213767,-0.53739 -1.213767,-1.10258 a 0.82462015,0.82462015 0 0 1 0.92654,-0.78756 1.0006626,1.0006626 0 0 1 0.880212,0.36135 z"
     id="path64"
     inkscape:connector-curvature="0"
     style="fill:#000000;fill-opacity:1;stroke-width:1;stroke:#000000;stroke-opacity:1" />
  <path
     class="cls-5"
     d="m 100.32062,156.67188 -1.853079,-3.09464 1.575119,-2.6499 a 2.0105907,2.0105907 0 0 1 0.16678,-0.19458 h -0.926539 a 0.25016566,0.25016566 0 0 1 0.0649,0.19458 l -1.2045,2.11251 -1.25083,-2.12178 a 0.24090027,0.24090027 0 0 1 0.06482,-0.19457 h -0.926539 a 2.0105907,2.0105907 0 0 1 0.166777,0.19457 l 1.575117,2.6499 -1.853079,3.09465 a 0.92653949,0.92653949 0 0 1 -0.166777,0.19457 h 0.92654 a 0.22236948,0.22236948 0 0 1 -0.06486,-0.19457 l 1.528791,-2.54799 1.51026,2.55725 a 0.22236948,0.22236948 0 0 1 -0.0649,0.19457 h 0.926539 a 0.85241633,0.85241633 0 0 1 -0.19458,-0.19457 z"
     id="path66"
     inkscape:connector-curvature="0"
     style="fill:#000000;fill-opacity:1;stroke-width:1;stroke:#000000;stroke-opacity:1" />
  <path
     class="cls-5"
     d="m 94.807714,154.89292 a 2.1217754,2.1217754 0 1 1 -4.234286,0 v 0 -3.95632 a 0.5466583,0.5466583 0 0 0 -0.101919,-0.19457 h 0.815355 a 0.5466583,0.5466583 0 0 0 -0.10192,0.19457 v 3.95632 0 a 1.5102595,1.5102595 0 1 0 3.020519,0 v 0 -3.95632 a 0.55592369,0.55592369 0 0 0 -0.101919,-0.19457 h 0.815355 a 0.5466583,0.5466583 0 0 0 -0.10192,0.19457 v 3.95632 0 z"
     id="path68"
     inkscape:connector-curvature="0"
     style="fill:#000000;fill-opacity:1;stroke-width:1;stroke:#000000;stroke-opacity:1" />
  <path
     class="cls-5"
     d="M 89.609827,156.25494 H 86.74682 v -5.31834 a 0.5466583,0.5466583 0 0 1 0.10192,-0.19457 h -0.815355 a 0.5466583,0.5466583 0 0 1 0.101919,0.19457 v 5.73528 a 0.5466583,0.5466583 0 0 1 -0.101919,0.19457 h 3.771016 v -0.71343 a 0.5466583,0.5466583 0 0 1 -0.194574,0.10192 z"
     id="path70"
     inkscape:connector-curvature="0"
     style="fill:#000000;fill-opacity:1;stroke-width:1;stroke:#000000;stroke-opacity:1" />
  <rect
     class="cls-2"
     x="37.39933"
     y="49.415672"
     width="5.5777678"
     height="1.0747858"
     id="rect72"
     style="fill:#e63312;stroke-width:1" />
  <polygon
     points="88.1,67.08 88.1,57.98 85.78,57.98 85.78,56.06 88.1,56.06 88.1,50.38 82.77,50.38 82.77,52.38 80.53,52.38 80.53,50.38 75.24,50.38 75.24,57.9 72.77,57.91 72.77,67.15 75.24,67.17 75.24,74.67 80.53,74.67 80.53,72.67 82.77,72.67 82.77,74.67 88.1,74.67 88.1,69 85.78,69 85.78,67.08 "
     id="polygon74"
     transform="matrix(0.92653949,0,0,0.92653949,11.048544,3.8669904)"
     style="stroke-width:1.07928479" />
  <polygon
     class="cls-1"
     points="76.04,51.19 79.73,51.19 79.73,53.18 83.56,53.18 83.56,51.19 87.3,51.19 87.3,55.26 84.99,55.26 84.99,58.77 87.3,58.77 87.3,66.28 84.99,66.28 84.99,69.8 87.3,69.8 87.3,73.87 83.56,73.87 83.56,71.88 79.73,71.88 79.73,73.87 76.04,73.87 76.04,66.36 73.55,66.36 73.55,58.7 76.04,58.7 "
     id="polygon76"
     style="fill:#ffdd00;stroke-width:1.07928479"
     transform="matrix(0.92653949,0,0,0.92653949,11.048544,3.8669904)" />
  <polygon
     points="79.73,64.29 79.73,69.72 83.56,69.72 83.56,64.29 85.64,64.29 85.64,60.77 83.56,60.77 83.56,55.34 79.73,55.34 79.73,60.77 77.58,60.77 77.58,64.29 "
     id="polygon78"
     transform="matrix(0.92653949,0,0,0.92653949,11.048544,3.8669904)"
     style="stroke-width:1.07928479" />
  <polygon
     class="cls-2"
     points="80.53,56.14 82.77,56.14 82.77,61.57 84.84,61.57 84.84,63.49 82.77,63.49 82.77,68.92 80.53,68.92 80.53,63.49 78.37,63.49 78.37,61.57 80.53,61.57 "
     id="polygon80"
     style="fill:#e63312;stroke-width:1.07928479"
     transform="matrix(0.92653949,0,0,0.92653949,11.048544,3.8669904)" />
  <path
     class="cls-1"
     d="M 74.053229,93.444832 V 47.831289 a 2.3534103,2.3534103 0 0 1 0.676374,-1.565852 2.2236948,2.2236948 0 0 1 3.789547,1.565852 v 45.613543 z"
     id="path82"
     inkscape:connector-curvature="0"
     style="fill:#ffdd00;stroke-width:1" />
  <path
     class="cls-1"
     d="m 88.25708,113.50441 a 1.1118474,1.1118474 0 0 1 -1.111848,-1.11185 v -9.80279 a 1.102582,1.102582 0 0 1 0.324289,-0.77829 1.0933166,1.0933166 0 0 1 0.787559,-0.32429 h 0.444739 a 1.1118474,1.1118474 0 0 1 1.111847,1.11185 v 9.81205 a 1.1118474,1.1118474 0 0 1 -1.111847,1.11185 H 88.25708 Z"
     id="path84"
     inkscape:connector-curvature="0"
     style="fill:#ffdd00;stroke-width:1" />
  <path
     class="cls-1"
     d="m 90.554898,110.17813 v -5.36466 a 2.6869645,2.6869645 0 0 1 0,5.36466 z"
     id="path86"
     inkscape:connector-curvature="0"
     style="fill:#ffdd00;stroke-width:1" />
  <path
     class="cls-1"
     d="m 64.111461,113.50441 a 1.1118474,1.1118474 0 0 1 -1.111848,-1.11185 v -9.80279 a 1.1211128,1.1211128 0 0 1 1.111848,-1.11185 h 0.444738 a 1.1118474,1.1118474 0 0 1 1.111848,1.11185 v 9.81205 a 1.1118474,1.1118474 0 0 1 -1.111848,1.11185 h -0.444738 z"
     id="path88"
     inkscape:connector-curvature="0"
     style="fill:#ffdd00;stroke-width:1" />
  <path
     class="cls-1"
     d="m 82.262369,95.742642 a 1.1118474,1.1118474 0 0 1 -1.111847,1.11185 h -9.802788 a 1.1118474,1.1118474 0 0 1 -1.111847,-1.11185 v -0.44474 a 1.1118474,1.1118474 0 0 1 0.324288,-0.78755 1.0933166,1.0933166 0 0 1 0.787559,-0.32429 h 9.812053 a 1.1118474,1.1118474 0 0 1 1.111848,1.11184 v 0.44474 0 z"
     id="path90"
     inkscape:connector-curvature="0"
     style="fill:#ffdd00;stroke-width:1" />
  <path
     class="cls-1"
     d="m 70.523114,119.49912 a 1.1118474,1.1118474 0 0 1 1.111847,-1.11185 h 9.830584 a 1.1118474,1.1118474 0 0 1 1.111848,1.11185 v 0.44474 a 1.1118474,1.1118474 0 0 1 -1.111848,1.11184 h -9.830584 a 1.1118474,1.1118474 0 0 1 -1.111847,-1.11184 z"
     id="path92"
     inkscape:connector-curvature="0"
     style="fill:#ffdd00;stroke-width:1" />
  <path
     class="cls-2"
     d="m 35.60184,57.698934 -0.370615,0.213104 a 5.2164173,5.2164173 0 0 1 -2.686965,0.92654 3.1317035,3.1317035 0 0 1 -2.270022,-0.92654 1.7789558,1.7789558 0 0 1 -0.36135,-1.334216 4.2250201,4.2250201 0 0 0 2.779618,1.028458 5.5592369,5.5592369 0 0 0 2.260757,-0.518862 3.4837885,3.4837885 0 0 1 1.389809,-0.352085 3.0668457,3.0668457 0 0 1 1.575117,0.407678 v 0.07412 a 2.7796185,2.7796185 0 0 0 -2.316349,0.4818 z"
     id="path94"
     inkscape:connector-curvature="0"
     style="fill:#e63312;stroke-width:1" />
  <path
     class="cls-2"
     d="m 39.521102,42.865037 a 0.67637383,0.67637383 0 0 1 0.194574,-0.472535 0.67637383,0.67637383 0 0 1 0.926539,0 0.66710843,0.66710843 0 1 1 -0.926539,0.926539 0.66710843,0.66710843 0 0 1 -0.194574,-0.454004 z"
     id="path96"
     inkscape:connector-curvature="0"
     style="fill:#e63312;stroke-width:1" />
  <path
     d="m 45.191524,46.719441 a 2.8352108,2.8352108 0 0 0 -2.835211,-2.83521 2.8722724,2.8722724 0 0 0 -1.714098,0.574454 0.66710843,0.66710843 0 0 1 -0.389146,0.06486 h -0.06486 a 1.0377242,1.0377242 0 0 1 -0.46327,-0.06486 2.7796185,2.7796185 0 0 0 -1.704833,-0.574454 2.8352108,2.8352108 0 0 0 -2.01059,4.836536 2.7796185,2.7796185 0 0 0 1.019193,0.648577 v 1.102582 h 0.370616 v -0.991397 a 2.7796185,2.7796185 0 0 0 0.620781,0.07412 h 4.345471 a 2.7796185,2.7796185 0 0 0 0.611516,-0.06486 v 1.000663 h 0.370616 v -1.111847 a 2.8444762,2.8444762 0 0 0 1.843813,-2.659169 z"
     id="path98"
     inkscape:connector-curvature="0"
     style="stroke-width:1" />
  <path
     class="cls-2"
     d="m 42.356313,49.184036 h -4.336205 a 2.4692277,2.4692277 0 0 1 0,-4.938455 2.4275335,2.4275335 0 0 1 1.482464,0.491066 1.2693591,1.2693591 0 0 0 0.685639,0.148246 h 0.06486 a 0.92653949,0.92653949 0 0 0 0.611516,-0.138981 2.5016566,2.5016566 0 0 1 1.491728,-0.500331 2.4692277,2.4692277 0 0 1 0,4.938455 z"
     id="path100"
     inkscape:connector-curvature="0"
     style="fill:#e63312;stroke-width:1" />
  <path
     d="m 38.020108,45.190651 a 1.4731978,1.4731978 0 0 0 -1.473197,1.473198 1.4731978,1.4731978 0 0 0 1.473197,1.473198 h 1.473198 v -1.473198 a 1.4731978,1.4731978 0 0 0 -1.473198,-1.473198 z"
     id="path102"
     inkscape:connector-curvature="0"
     style="stroke-width:1" />
  <path
     d="m 42.347048,45.190651 a 1.4731978,1.4731978 0 0 0 -1.473198,1.473198 v 1.463932 h 1.473198 a 1.4731978,1.4731978 0 0 0 0,-2.93713 z"
     id="path104"
     inkscape:connector-curvature="0"
     style="stroke-width:1" />
  <path
     class="cls-1"
     d="m 39.113425,47.766431 h -1.093317 a 1.102582,1.102582 0 1 1 1.102582,-1.102582 v 1.093317 0 z"
     id="path106"
     inkscape:connector-curvature="0"
     style="fill:#ffdd00;stroke-width:1" />
  <path
     class="cls-1"
     d="m 42.347048,47.766431 h -1.102582 v -1.102582 a 1.102582,1.102582 0 1 1 1.102582,1.102582 z"
     id="path108"
     inkscape:connector-curvature="0"
     style="fill:#ffdd00;stroke-width:1" />
  <path
     class="cls-1"
     d="M 84.059856,32.432202 71.773942,32.367345 A 14.704182,14.704182 0 0 0 71.49598,29.68038 Z"
     id="path110"
     inkscape:connector-curvature="0"
     style="fill:#ffdd00;stroke-width:1" />
  <path
     class="cls-1"
     d="M 69.309347,24.417636 A 14.583732,14.583732 0 0 0 67.61378,22.323657 l 8.635348,-8.718737 z"
     id="path112"
     inkscape:connector-curvature="0"
     style="fill:#ffdd00;stroke-width:1" />
  <path
     class="cls-1"
     d="m 76.082351,13.419612 -8.728002,8.644614 a 14.713447,14.713447 0 0 0 -2.09398,-1.704833 z"
     id="path114"
     inkscape:connector-curvature="0"
     style="fill:#ffdd00;stroke-width:1" />
  <path
     class="cls-1"
     d="m 62.369566,14.846483 a 4.7346168,4.7346168 0 0 0 1.371279,-1.185971 6.3653263,6.3653263 0 0 0 0.778293,-2.121775 5.6982179,5.6982179 0 0 1 0.926539,-2.2885526 3.5301155,3.5301155 0 0 1 3.363339,-1.213766 5.6333601,5.6333601 0 0 0 -1.982795,2.7240256 4.4844511,4.4844511 0 0 0 0,2.649903 4.0397122,4.0397122 0 0 1 0.148247,1.760425 4.6790244,4.6790244 0 0 1 -0.833886,1.667771 3.9841198,3.9841198 0 0 0 -0.787559,1.612179 3.1224381,3.1224381 0 0 0 0,1.380543 l -0.416942,0.259431 a 14.444751,14.444751 0 0 0 -4.540044,-1.853079 l -0.296492,-1.30642 a 7.7829317,7.7829317 0 0 1 2.270021,-2.084714 z"
     id="path116"
     inkscape:connector-curvature="0"
     style="fill:#ffdd00;stroke-width:1" />
  <path
     class="cls-1"
     d="M 59.98836,18.17276 A 14.963613,14.963613 0 0 0 57.310661,17.894798 L 57.245803,5.6274154 Z"
     id="path118"
     inkscape:connector-curvature="0"
     style="fill:#ffdd00;stroke-width:1" />
  <path
     class="cls-1"
     d="m 56.995637,5.6274154 -0.05559,12.2673826 a 14.398424,14.398424 0 0 0 -2.686965,0.287227 z"
     id="path120"
     inkscape:connector-curvature="0"
     style="fill:#ffdd00;stroke-width:1" />
  <path
     class="cls-1"
     d="m 48.313962,16.319681 a 4.7068206,4.7068206 0 0 0 0.129716,-1.853079 6.3004685,6.3004685 0 0 0 -0.92654,-2.047653 5.7074833,5.7074833 0 0 1 -0.982132,-2.242225 3.5393809,3.5393809 0 0 1 1.519525,-3.2428876 5.6704217,5.6704217 0 0 0 0.537393,3.3077456 4.4844511,4.4844511 0 0 0 1.853079,1.853079 4.0397122,4.0397122 0 0 1 1.371278,1.18597 4.6326974,4.6326974 0 0 1 0.602251,1.797487 3.965589,3.965589 0 0 0 0.58372,1.695567 3.0483149,3.0483149 0 0 0 0.92654,0.991397 l -0.111185,0.481801 a 14.574466,14.574466 0 0 0 -4.540044,1.853079 l -1.130378,-0.713436 a 7.6902778,7.6902778 0 0 1 0.166777,-3.066845 z"
     id="path122"
     inkscape:connector-curvature="0"
     style="fill:#ffdd00;stroke-width:1" />
  <path
     class="cls-1"
     d="m 48.981071,20.359393 a 14.583732,14.583732 0 0 0 -2.09398,1.695567 l -8.718736,-8.635348 z"
     id="path124"
     inkscape:connector-curvature="0"
     style="fill:#ffdd00;stroke-width:1" />
  <path
     class="cls-1"
     d="m 37.992312,13.60492 8.635348,8.718737 a 14.66712,14.66712 0 0 0 -1.704832,2.093979 z"
     id="path126"
     inkscape:connector-curvature="0"
     style="fill:#ffdd00;stroke-width:1" />
  <path
     class="cls-1"
     d="M 42.726929,29.698911 A 14.824632,14.824632 0 0 0 42.448967,32.37661 L 30.19085,32.44147 Z"
     id="path128"
     inkscape:connector-curvature="0"
     style="fill:#ffdd00;stroke-width:1" />
  <path
     class="cls-1"
     d="m 30.19085,32.682368 12.258117,0.05559 a 14.602262,14.602262 0 0 0 0.277962,2.686964 z"
     id="path130"
     inkscape:connector-curvature="0"
     style="fill:#ffdd00;stroke-width:1" />
  <path
     class="cls-1"
     d="m 42.810318,29.300499 -1.278625,0.287227 a 7.7088086,7.7088086 0 0 1 -2.121775,-2.297818 4.7346168,4.7346168 0 0 0 -1.185971,-1.371278 6.3653263,6.3653263 0 0 0 -2.158837,-0.741232 5.6796871,5.6796871 0 0 1 -2.279287,-0.926539 3.5393809,3.5393809 0 0 1 -1.213767,-3.372604 5.6518909,5.6518909 0 0 0 2.714761,1.954998 4.5122473,4.5122473 0 0 0 2.649903,0 4.058243,4.058243 0 0 1 1.760425,-0.148246 4.7902092,4.7902092 0 0 1 1.704833,0.843151 3.9748544,3.9748544 0 0 0 1.612178,0.787559 3.0483149,3.0483149 0 0 0 1.380544,0 l 0.268697,0.435473 a 14.66712,14.66712 0 0 0 -1.853079,4.549309 z"
     id="path132"
     inkscape:connector-curvature="0"
     style="fill:#ffdd00;stroke-width:1" />
  <path
     class="cls-1"
     d="m 43.264322,36.101299 a 14.296504,14.296504 0 0 1 13.851765,-17.835885 14.296504,14.296504 0 0 1 14.287239,14.3243 14.370627,14.370627 0 0 1 -0.444739,3.548646 H 43.264322 Z"
     id="path134"
     inkscape:connector-curvature="0"
     style="fill:#ffdd00;stroke-width:1" />
  <path
     class="cls-1"
     d="m 69.540982,24.760455 0.713435,-1.130378 a 7.7644009,7.7644009 0 0 1 3.103908,0.129716 4.7253514,4.7253514 0 0 0 1.853079,0.138981 6.3653263,6.3653263 0 0 0 2.047652,-0.92654 5.7352794,5.7352794 0 0 1 2.251491,-0.982132 3.5301155,3.5301155 0 0 1 3.242888,1.519525 5.6518909,5.6518909 0 0 0 -3.307746,0.537393 4.4844511,4.4844511 0 0 0 -1.853079,1.853079 4.011916,4.011916 0 0 1 -1.148909,1.343482 4.6326974,4.6326974 0 0 1 -1.797486,0.602251 3.9563236,3.9563236 0 0 0 -1.695568,0.58372 3.1872958,3.1872958 0 0 0 -0.991397,0.926539 l -0.481801,-0.111184 a 14.555935,14.555935 0 0 0 -1.936467,-4.484452 z"
     id="path136"
     inkscape:connector-curvature="0"
     style="fill:#ffdd00;stroke-width:1" />
  <path
     class="cls-1"
     d="m 71.49598,35.424925 a 14.648589,14.648589 0 0 0 0.277962,-2.677699 l 12.276648,-0.05559 z"
     id="path138"
     inkscape:connector-curvature="0"
     style="fill:#ffdd00;stroke-width:1" />
  <path
     d="m 57.838788,24.704863 h 5.559237 l -0.926539,-1.630709 -3.242889,0.694904 c 0.592986,-0.667108 0.472536,-2.464595 -2.158837,-2.47386 v 0 c -2.622106,0 -2.779618,1.853079 -2.158837,2.47386 l -3.17803,-0.694904 -0.92654,1.630709 h 5.559237 c -1.40834,-0.685639 -0.667108,-1.75116 0.731967,-1.760425 1.399074,-0.0093 2.13104,1.074786 0.741231,1.760425 z"
     id="path140"
     inkscape:connector-curvature="0"
     style="stroke-width:1" />
  <polygon
     points="42.22,24.39 42.88,23.65 42.22,23.65 41.3,23.65 40.38,23.65 39.72,23.65 40.38,24.39 40.38,31.83 39.72,32.56 40.38,32.56 41.3,32.56 42.22,32.56 42.88,32.56 42.22,31.83 "
     id="polygon142"
     transform="matrix(0.92653949,0,0,0.92653949,11.048544,3.8669904)"
     style="stroke-width:1.07928479" />
  <polygon
     points="47.73,23.65 47.07,23.65 46.15,23.65 45.23,23.65 44.58,23.65 45.23,24.39 45.23,31.83 44.58,32.56 45.23,32.56 46.15,32.56 47.07,32.56 47.73,32.56 47.07,31.83 47.07,29.02 50.49,29.02 50.49,31.83 49.83,32.56 50.49,32.56 51.41,32.56 52.32,32.56 52.98,32.56 52.32,31.83 52.32,24.39 52.98,23.65 52.32,23.65 51.41,23.65 50.49,23.65 49.83,23.65 50.49,24.39 50.49,27.17 47.07,27.17 47.07,24.39 "
     id="polygon144"
     transform="matrix(0.92653949,0,0,0.92653949,11.048544,3.8669904)"
     style="stroke-width:1.07928479" />
  <polygon
     points="57.34,25.56 60.22,25.56 59.15,23.68 54.08,23.68 56.62,28.12 54.08,32.56 59.89,32.56 60.95,30.7 57.33,30.7 58.8,28.12 "
     id="polygon146"
     transform="matrix(0.92653949,0,0,0.92653949,11.048544,3.8669904)"
     style="stroke-width:1.07928479" />
  <path
     d="m 42.949299,101.92266 a 1.4917286,1.4917286 0 0 0 -2.103245,0.0834 c -0.250166,0.31502 -4.632698,5.55924 -5.438787,6.48578 a 5.0033132,5.0033132 0 0 1 -0.611516,-0.55593 20.383869,20.383869 0 0 0 -3.474523,-3.20582 h -0.06486 a 2.6962299,2.6962299 0 0 0 -1.64924,-0.68564 2.4367989,2.4367989 0 0 0 -2.390472,3.28921 l 0.04633,0.12972 h 0.138981 l 0.324289,-0.0556 h 0.138981 v -0.23164 a 0.79682396,0.79682396 0 0 1 0.259431,-0.57445 0.76902778,0.76902778 0 0 1 0.926539,-0.10192 1.6492403,1.6492403 0 0 0 0.435474,0.75049 1.5195248,1.5195248 0 0 0 1.500994,0.37989 l 0.926539,0.88021 c -1.575117,-0.0927 -4.771678,-0.0649 -4.966251,-0.0649 h -0.231635 a 2.9927226,2.9927226 0 0 0 -1.723364,0.18531 2.5387182,2.5387182 0 0 0 -1.250828,1.38054 2.4275335,2.4275335 0 0 0 0.676374,2.64064 l 0.101919,0.0926 0.111185,-0.0834 0.259431,-0.19457 0.111185,-0.0834 -0.05559,-0.11118 a 0.80608936,0.80608936 0 0 1 0,-0.63931 0.77829317,0.77829317 0 0 1 0.833886,-0.50034 1.5565863,1.5565863 0 0 0 0.731966,0.43548 1.5751171,1.5751171 0 0 0 1.204501,-0.15751 1.5565863,1.5565863 0 0 0 0.694905,-0.80609 11.248189,11.248189 0 0 1 2.23296,0.37061 l -2.779618,1.17671 c -0.231635,0.0834 -0.324289,0.10192 -0.444739,0.14824 a 2.6406375,2.6406375 0 0 0 -1.52879,1.02846 2.4367989,2.4367989 0 0 0 1.445401,3.79882 h 0.129716 l 0.05559,-0.12972 0.138981,-0.29649 0.05559,-0.12972 -0.12045,-0.0741 a 0.79682396,0.79682396 0 0 1 -0.342819,-0.53739 0.76902778,0.76902778 0 0 1 0.296492,-0.73197 1.5102594,1.5102594 0 0 0 0.630047,0.0741 1.6214441,1.6214441 0 0 0 1.399075,-1.55658 v 0 a 15.556598,15.556598 0 0 1 4.558574,-1.28789 c 1.853079,-0.15752 2.779618,-0.14825 3.317011,-0.14825 h 0.148247 a 0.56518909,0.56518909 0 0 1 0.398412,0.11118 0.34281961,0.34281961 0 0 1 0.07412,0.25017 c 0,0.25017 -0.06486,0.82462 -0.08339,1.00993 a 1.5751171,1.5751171 0 0 0 -0.342819,1.73263 0.86168173,0.86168173 0 0 1 -0.630047,0.79682 0.92653949,0.92653949 0 0 1 -0.694905,-0.10192 l -0.148246,-0.12971 -0.101919,0.12045 -0.250166,0.26869 -0.101919,0.11119 0.09265,0.12045 a 2.7054953,2.7054953 0 0 0 4.502982,-0.29649 3.0205187,3.0205187 0 0 0 0.324289,-2.01986 c 0,-0.22237 0,-0.5096 0,-0.61152 0,-2.52945 -1.16744,-3.52085 -2.223695,-3.90999 l 4.845802,-6.08737 v 0 a 1.3342169,1.3342169 0 0 0 -0.315023,-1.75116 z"
     id="path148"
     inkscape:connector-curvature="0"
     style="stroke-width:1" />
  <path
     class="cls-2"
     d="m 38.585298,117.25689 a 2.3256141,2.3256141 0 0 1 -2.371942,-0.7227 v -0.0463 a 1.2600937,1.2600937 0 0 0 0.852417,0.0741 1.2230321,1.2230321 0 0 0 0.806089,-0.71344 v 0 a 1.6307095,1.6307095 0 0 0 2.075449,0.2409 l 0.09265,-0.0649 -0.07412,0.13898 a 2.3348795,2.3348795 0 0 1 -1.380543,1.09332 z"
     id="path150"
     inkscape:connector-curvature="0"
     style="fill:#e63312;stroke-width:1" />
  <path
     class="cls-2"
     d="m 26.938696,108.80685 v 0 a 1.2137667,1.2137667 0 0 0 -1.102582,1.85308 1.2137667,1.2137667 0 0 0 2.21443,-0.28723 v -0.14824 h 0.148246 a 9.524826,9.524826 0 0 1 2.93713,0.56519 l 0.389147,0.16677 -0.389147,0.16678 -3.326277,1.37128 a 1.2322975,1.2322975 0 0 0 -1.093316,1.36201 1.2137667,1.2137667 0 0 0 1.30642,1.11185 1.2508283,1.2508283 0 0 0 1.111848,-1.32495 v -0.12045 l 0.111185,-0.0463 0.13898,-0.0556 a 15.843825,15.843825 0 0 1 4.632698,-1.31569 c 1.853079,-0.15751 2.863007,-0.14825 3.344807,-0.14825 h 0.148247 a 0.92653949,0.92653949 0 0 1 0.667108,0.21311 0.70417001,0.70417001 0 0 1 0.185308,0.51886 c 0,0.32429 -0.09265,1.08405 -0.09265,1.11185 v 0.0741 h -0.05559 a 1.2137667,1.2137667 0 0 0 -0.10192,1.69557 1.2878899,1.2878899 0 0 0 1.593648,0.19457 1.5751171,1.5751171 0 0 0 0.528128,-1.61218 c 0,-0.0834 0,-0.14824 0,-0.28722 0,-1.97353 -0.787559,-3.40967 -2.242226,-3.81735 l -0.268696,-0.0741 0.176042,-0.22237 5.012579,-6.2912 v 0 a 0.98213186,0.98213186 0 0 0 -0.222369,-1.28789 1.1303782,1.1303782 0 0 0 -1.593648,0 c -0.268697,0.34282 -5.336868,6.35606 -5.559237,6.61549 l -0.111185,0.12972 -0.138981,-0.0927 a 4.6326974,4.6326974 0 0 1 -0.796824,-0.70417 20.578442,20.578442 0 0 0 -3.381869,-3.14097 1.2415629,1.2415629 0 0 0 -1.491729,0.25017 1.2137667,1.2137667 0 0 0 0.05559,1.69557 1.1952359,1.1952359 0 0 0 1.241563,0.25943 h 0.101919 l 0.07412,0.0649 1.473198,1.31569 0.518862,0.40768 -0.657843,-0.0834 c -1.158174,-0.14825 -5.429521,-0.11119 -5.475848,-0.11119 v 0 z"
     id="path152"
     inkscape:connector-curvature="0"
     style="fill:#e63312;stroke-width:1" />
  <path
     d="m 38.770605,59.172132 -0.07412,-0.370616 a 2.3348795,2.3348795 0 0 1 -1.797486,0 3.706158,3.706158 0 0 0 1.945733,-1.056255 1.500994,1.500994 0 0 0 0.454004,-1.06552 1.3990746,1.3990746 0 0 0 -1.380544,-1.417605 1.3249515,1.3249515 0 0 0 -0.926539,0.342819 2.5294528,2.5294528 0 0 0 -2.056918,-1.593648 H 32.81296 a 0.79682396,0.79682396 0 0 0 -0.852417,0.852417 v 0.287227 h -0.157511 a 16.140318,16.140318 0 0 1 -1.213767,-2.362676 1.0377242,1.0377242 0 0 1 0.06486,-0.926539 0.56518909,0.56518909 0 0 1 0.454004,-0.250166 h 4.864332 l 0.231635,-0.370616 h -5.095967 a 0.92653949,0.92653949 0 0 0 -0.750497,0.398412 1.3990746,1.3990746 0 0 0 -0.111185,1.278625 17.085388,17.085388 0 0 0 1.297155,2.529452 l 0.05559,0.09265 h 0.759762 v -0.713431 a 0.51886211,0.51886211 0 0 1 0.129716,-0.36135 0.49106593,0.49106593 0 0 1 0.352085,-0.120451 h 2.121775 a 2.1958986,2.1958986 0 0 1 1.797487,1.612179 l 0.324289,0.07412 a 1.0006626,1.0006626 0 0 1 0.833885,-0.435473 1.0377242,1.0377242 0 0 1 0.731966,0.305758 1.0191934,1.0191934 0 0 1 0.305758,0.731966 1.1396436,1.1396436 0 0 1 -0.342819,0.806089 3.1224381,3.1224381 0 0 1 -1.917937,0.982132 h -0.09265 l -0.09265,0.111185 -0.12045,0.176042 -0.101919,0.148247 0.138981,0.111184 a 2.5016566,2.5016566 0 0 0 2.35341,0.213105"
     id="path154"
     inkscape:connector-curvature="0"
     style="stroke-width:1" />
  <path
     class="cls-2"
     d="m 35.972456,51.593039 c 0,0 2.307084,1.538056 3.224358,2.270022 a 2.9834572,2.9834572 0 0 1 -0.472536,4.938455 2.3904719,2.3904719 0 0 1 -1.853078,0 3.706158,3.706158 0 0 0 1.973529,-1.056255 1.500994,1.500994 0 0 0 0.454004,-1.06552 1.3990746,1.3990746 0 0 0 -1.380544,-1.417605 1.3249515,1.3249515 0 0 0 -0.926539,0.342819 2.5294528,2.5294528 0 0 0 -2.056918,-1.593648 h -2.121775 a 0.79682396,0.79682396 0 0 0 -0.852417,0.852417 v 0.287227 h -0.157511 a 16.140318,16.140318 0 0 1 -1.213767,-2.362676 1.0377242,1.0377242 0 0 1 0.06486,-0.926539 0.56518909,0.56518909 0 0 1 0.454004,-0.250166 h 4.864332 z"
     id="path156"
     inkscape:connector-curvature="0"
     style="fill:#e63312;stroke-width:1" />
  <path
     d="m 53.66936,58.884905 a 2.3904719,2.3904719 0 0 0 1.093317,-2.001325 2.464595,2.464595 0 0 0 0,-0.296493 h -0.315023 c -4.540044,0 -5.03111,-6.105895 -11.24819,-6.105895 h -6.569165 l -0.657843,1.111847 c 0,0 2.307084,1.538056 3.224358,2.270022 a 2.955661,2.955661 0 0 1 1.093316,2.316349 3.0205187,3.0205187 0 0 1 -1.593648,2.640637 l 0.07412,0.352085 a 4.6326974,4.6326974 0 0 1 0.796824,-0.129715 4.80874,4.80874 0 0 1 5.133029,4.493716 4.9662517,4.9662517 0 0 1 -0.296492,1.945733 2.0569177,2.0569177 0 0 0 1.30642,0.454004 1.853079,1.853079 0 0 0 1.084051,-0.324288 7.6346854,7.6346854 0 0 0 -1.463932,6.615492 3.706158,3.706158 0 0 0 -2.399737,-0.92654 3.6227694,3.6227694 0 0 0 -2.900069,1.417606 2.1032446,2.1032446 0 0 1 -1.686302,0.84315 2.0754485,2.0754485 0 0 1 -1.232297,-0.398412 2.1217754,2.1217754 0 0 0 1.473198,-2.019856 1.9827945,1.9827945 0 0 0 -0.472536,-1.334216 L 20.805005,51.843205 a 19.679699,19.679699 0 0 1 -3.826608,-6.105895 5.864995,5.864995 0 0 0 -0.500332,9.728664 l 12.971553,11.331578 0.07412,0.07412 c -0.148246,0.287228 -0.277961,0.574455 -0.398412,0.870947 l -8.246198,-4.836533 a 24.293865,24.293865 0 0 1 -6.8008,-5.559237 5.8927912,5.8927912 0 0 0 2.056918,8.172079 l 12.174729,5.559237 a 11.665132,11.665132 0 0 0 -0.06486,1.241563 c 0,0 0,0 0,0.05559 -0.518862,-0.06486 -4.836536,-0.630047 -5.559237,-0.769028 a 47.763111,47.763111 0 0 1 -9.821319,-2.779618 5.864995,5.864995 0 0 0 5.827934,6.485776 h 9.97883 c 0.101919,0.407677 0.2409,0.815355 0.379881,1.204501 -0.213104,0.04633 -8.412978,1.964264 -9.765726,2.21443 -1.352748,0.250165 -4.836536,0.926539 -6.170753,0.741231 a 5.864995,5.864995 0 0 0 5.688953,4.456655 5.8001372,5.8001372 0 0 0 2.047652,-0.379881 l 9.710134,-4.141631 v 0 c 0.203838,0.277961 0.352085,0.4818 0.574454,0.731966 v 0 c 0,0 -8.885514,7.755135 -10.108546,8.681675 a 23.70088,23.70088 0 0 1 -5.142294,3.196568 5.864995,5.864995 0 0 0 8.987433,-0.0463 L 33.52639,82.27079 v 0 q 0.444739,0.305758 0.926539,0.565189 l -3.798811,8.181343 c -1.334217,2.77962 -3.140969,6.96758 -6.133692,9.969568 a 5.864995,5.864995 0 0 0 8.626083,-3.446728 l 3.993385,-13.610867 a 11.822644,11.822644 0 0 0 1.565852,0.305758 c -0.05559,0.602251 -0.370616,4.169428 -1.04699,8.190609 a 3.7988119,3.7988119 0 0 0 0.537393,0 3.706158,3.706158 0 0 0 3.706158,-3.706158 l -0.176043,-4.512247 v 0 a 12.045013,12.045013 0 0 0 4.919925,-1.584382 l 2.11251,5.902056 a 13.314372,13.314372 0 0 0 -5.97618,4.289881 c -1.778955,2.37194 -2.59431,4.28061 -6.142956,5.55924 a 3.706158,3.706158 0 0 0 2.557249,1.02845 3.354073,3.354073 0 0 0 0.426208,0 7.6068892,7.6068892 0 0 0 6.569165,4.706828 c 0,-0.0649 0,-0.11119 0,-0.17605 a 7.6624816,7.6624816 0 0 1 4.92919,-7.152878 c 0.389146,3.493048 0.222369,6.939778 -3.956324,10.682998 a 6.4857764,6.4857764 0 0 0 -2.446064,6.14296 7.8848511,7.8848511 0 0 1 5.003313,-2.59432 c -0.926539,1.04699 -2.622107,2.39048 -4.280612,4.32694 a 6.4209187,6.4209187 0 0 0 2.038387,9.95104 8.6538788,8.6538788 0 0 1 0.537393,-3.99339 c 0.639312,-1.6863 4.540043,-4.17869 4.984782,-8.57049 a 9.5433567,9.5433567 0 0 1 0.472535,2.63137 c 0,3.53939 -1.399074,5.67043 -3.650565,8.86699 a 3.5764424,3.5764424 0 0 0 3.279949,-0.15751 13.221719,13.221719 0 0 0 4.021182,7.08802 V 61.747912 a 7.579093,7.579093 0 0 0 -3.455993,-2.863007 z"
     id="path158"
     inkscape:connector-curvature="0"
     style="stroke-width:1" />
  <path
     class="cls-6"
     d="m 41.540959,52.482517 h 1.111847 v -0.815355 h -4.632698 v 0.815355 h 1.111848 a 1.181338,1.181338 0 0 0 2.362676,0 v 0 z"
     id="path160"
     inkscape:connector-curvature="0"
     style="fill:#ffdd00;stroke:#000000;stroke-width:0.22px" />
  <path
     class="cls-2"
     d="m 29.394026,105.03583 a 1.5102594,1.5102594 0 0 0 -0.426208,1.10259 h -0.08339 a 1.1118474,1.1118474 0 0 0 -0.982132,0.25943 1.1303782,1.1303782 0 0 0 -0.36135,0.68564 h -0.05559 a 2.1032446,2.1032446 0 0 1 2.09398,-2.74256 h 0.287227 l 0.46327,0.17604 a 1.6214441,1.6214441 0 0 0 -0.935805,0.51886 z"
     id="path162"
     inkscape:connector-curvature="0"
     style="fill:#e63312;stroke-width:1" />
  <path
     class="cls-2"
     d="m 24.57602,111.49382 a 1.1396436,1.1396436 0 0 0 0,0.76902 v 0 a 2.1032446,2.1032446 0 0 1 0.592986,-3.38187 1.6121787,1.6121787 0 0 1 0.333554,-0.14824 2.3163487,2.3163487 0 0 1 0.555924,-0.0741 1.7882212,1.7882212 0 0 0 -0.676374,0.92654 1.5658517,1.5658517 0 0 0 0.148246,1.18597 h -0.203839 a 1.102582,1.102582 0 0 0 -0.750497,0.72271 z"
     id="path164"
     inkscape:connector-curvature="0"
     style="fill:#e63312;stroke-width:1" />
  <path
     class="cls-2"
     d="m 26.799715,115.97827 a 1.1211128,1.1211128 0 0 0 0.379881,0.6671 v 0.0556 a 2.1032446,2.1032446 0 0 1 -1.111847,-3.24289 2.9278648,2.9278648 0 0 1 0.176043,-0.2409 1.2230321,1.2230321 0 0 1 0.342819,-0.27796 1.5473209,1.5473209 0 0 0 0.352085,1.96426 l 0.185308,0.14825 a 1.0933166,1.0933166 0 0 0 -0.324289,0.92654 z"
     id="path166"
     inkscape:connector-curvature="0"
     style="fill:#e63312;stroke-width:1" />
  <rect
     x="56.921509"
     y="37.296535"
     width="0.37061581"
     height="101.46534"
     id="rect168"
     style="stroke-width:1" />
</svg>
